<svg xmlns="http://www.w3.org/2000/svg" xmlns:xlink="http://www.w3.org/1999/xlink" version="1.1" id="Layer_1" x="0px" y="0px" viewBox="0 0 504.123 504.123" style="enable-background:new 0 0 504.123 504.123;" xml:space="preserve">
<circle style="fill:#272C2D;" cx="86.569" cy="374.706" r="19.251"/>
<path style="fill:#646B6D;" d="M191.419,323.294c-6.688,6.688-17.526,6.688-24.198,0l-29.239-29.216  c-6.688-6.695-6.688-17.534,0-24.206L327.508,80.338c6.688-6.68,17.518-6.68,24.198,0l29.239,29.231  c6.68,6.688,6.68,17.518,0,24.198L191.419,323.294z"/>
<path style="fill:#464D4F;" d="M181.951,313.849c-6.672,6.672-15.596,8.594-19.905,4.269l-18.881-18.881  c-4.324-4.317-2.41-13.233,4.277-19.913L336.976,89.798c6.672-6.688,15.588-8.602,19.913-4.285l18.881,18.889  c4.324,4.324,2.402,13.241-4.277,19.921L181.951,313.849z"/>
<path style="fill:#646B6D;" d="M124.874,389.822c-6.68,6.688-17.518,6.688-24.19,0l-29.239-29.223c-6.68-6.688-6.68-17.526,0-24.198  L260.98,146.866c6.68-6.68,17.518-6.68,24.19,0l29.239,29.231c6.688,6.695,6.68,17.526,0,24.198L124.874,389.822z"/>
<path style="fill:#464D4F;" d="M115.43,380.385c-6.68,6.68-15.596,8.594-19.913,4.277l-18.889-18.897  c-4.324-4.317-2.402-13.233,4.269-19.905l189.535-189.527c6.68-6.672,15.588-8.602,19.921-4.285l18.881,18.881  c4.324,4.332,2.402,13.241-4.285,19.921L115.43,380.385z"/>
<path style="fill:#039DC1;" d="M308.029,243.232c-6.703,6.711-17.573,6.711-24.292,0l-65.678-65.678  c-6.711-6.719-6.711-17.597,0-24.3l0,0c6.711-6.711,17.581-6.711,24.292-0.008l65.678,65.686  C314.74,225.643,314.74,236.513,308.029,243.232L308.029,243.232z"/>
<path style="fill:#D64505;" d="M346.665,264.823c-6.68,6.68-17.518,6.68-24.198,0L196.452,138.816  c-6.68-6.688-6.68-17.518,0.008-24.198l59.471-59.479c6.688-6.68,17.518-6.68,24.198,0l126.015,126.007  c6.68,6.688,6.68,17.518,0,24.198L346.665,264.823z"/>
<path style="fill:#C63205;" d="M406.144,205.344l-59.479,59.479c-6.68,6.68-17.518,6.68-24.198,0L196.452,138.816  c-6.68-6.688-6.68-17.518,0.008-24.198"/>
<g>
	<path style="fill:#FF5B1A;" d="M255.931,55.139c6.688-6.68,17.518-6.68,24.198,0l126.015,126.007c6.68,6.688,6.68,17.518,0,24.198"/>
</g>
<path style="fill:#323535;" d="M437.895,136.295c-31.185,31.177-51.484,0.929-82.66-30.247s-61.44-51.484-30.247-82.668  c31.177-31.169,81.731-31.177,112.916,0C469.072,54.557,469.072,105.119,437.895,136.295z"/>
<path d="M437.895,136.295c-31.185,31.177-58.281,7.727-89.45-23.442c-31.185-31.185-54.65-58.289-23.457-89.474  c31.177-31.169,68.624-18.07,99.809,13.115C455.965,67.664,469.072,105.119,437.895,136.295z"/>
<path style="fill:#323535;" d="M67.349,501.69c-32.673-32.666-32.673-85.835,0-118.516c3.237-3.23,8.468-3.23,11.705,0  c3.23,3.245,3.23,8.483,0,11.713c-26.222,26.222-26.222,68.876,0,95.106c3.23,3.222,3.23,8.46,0,11.689  C75.817,504.935,70.587,504.935,67.349,501.69z"/>
<path style="fill:#C63205;" d="M324.342,234.182c-2.056,2.064-5.419,2.064-7.467,0l-89.773-89.765  c-2.072-2.072-2.072-5.419-0.008-7.483l47.388-47.388c2.072-2.064,5.419-2.064,7.483,0l89.773,89.773  c2.064,2.064,2.064,5.419,0,7.483L324.342,234.182z"/>
<path style="fill:#AA2102;" d="M371.737,179.327c2.064,2.064,2.064,5.419,0,7.483l-47.395,47.38c-2.056,2.064-5.419,2.064-7.467,0  l-89.773-89.773c-2.072-2.072-2.072-5.419-0.008-7.483"/>
<g>
	<path style="fill:#FFFFFF;" d="M299.608,129.797l-20.771-20.771c-0.662-0.662-1.733-0.654-2.387,0l-30.444,30.444   c-0.662,0.67-0.662,1.725,0,2.387l4.435,4.427c0.646,0.646,1.725,0.662,2.379,0l12.768-12.776l7.499,7.515   c0.662,0.646,1.733,0.662,2.395,0l4.175-4.175c0.646-0.662,0.646-1.733,0-2.379l-7.515-7.515l5.671-5.656l15.155,15.147   c0.662,0.662,1.709,0.646,2.379-0.008l4.254-4.269C300.246,131.514,300.262,130.459,299.608,129.797z"/>
	<path style="fill:#FFFFFF;" d="M324.523,155.058c0.26-0.63,0.126-1.363-0.37-1.843c-0.473-0.48-1.197-0.614-1.827-0.354   l-37.345,15.415c0.071-0.48-0.079-0.985-0.449-1.363l-7.255-7.255l24.907-24.899c0.662-0.654,0.67-1.717,0-2.387l-4.435-4.427   c-0.654-0.67-1.733-0.67-2.387-0.016l-30.444,30.444c-0.67,0.662-0.654,1.733,0,2.402l12.871,12.863c0,0,0.024,0.016,0.055,0.031   c0,0,0.032,0.047,0.055,0.079l4.695,4.687c0.488,0.488,1.205,0.622,1.835,0.362l9.697-4.049l8.483,8.491l-4.033,9.704   c-0.268,0.622-0.126,1.363,0.354,1.835l4.703,4.703c0.016,0.008,0.024,0.016,0.024,0.016c0.662,0.662,1.709,0.662,2.387,0   c0.244-0.244,0.402-0.536,0.473-0.851L324.523,155.058z M309.305,168.063l-2.804,6.459l-3.639-3.647L309.305,168.063z"/>
	<path style="fill:#FFFFFF;" d="M352.832,181.887l-27.829-27.837c-0.67-0.662-1.733-0.654-2.395,0.008l-4.261,4.261   c-0.662,0.662-0.67,1.725-0.008,2.387l14.675,14.675l-25.379,25.379c-0.654,0.654-0.67,1.717,0,2.379l4.427,4.435   c0.662,0.662,1.725,0.654,2.371,0l25.395-25.379l6.341,6.341c0.662,0.646,1.717,0.662,2.379,0l4.269-4.261   C353.478,183.612,353.478,182.533,352.832,181.887z"/>
</g>
<path style="fill:#FFE600;" d="M318.97,148.875c0.047-0.197-0.016-0.41-0.165-0.544l-1.481-1.481  c-0.181-0.181-0.449-0.236-0.677-0.126l-4.427,1.906l1.922-4.411c0.11-0.244,0.047-0.504-0.126-0.685l-1.489-1.481  c0,0-0.047-0.047-0.079-0.063l-0.024-0.055l-5.073-5.073c-0.244-0.228-0.63-0.228-0.851,0l-1.434,1.434  c-0.236,0.236-0.236,0.622-0.016,0.866l1.378,1.363l-5.435,5.443c-0.228,0.236-0.228,0.63,0,0.859l1.497,1.489  c0.221,0.228,0.614,0.236,0.851,0l5.435-5.443l1.347,1.339c0.15,0.158,0.354,0.189,0.536,0.158l-3.482,8.507  c-0.095,0.221-0.032,0.48,0.142,0.646c0.165,0.173,0.433,0.228,0.662,0.142l10.618-4.356  C318.796,149.237,318.93,149.08,318.97,148.875z"/>
<g>
</g>
<g>
</g>
<g>
</g>
<g>
</g>
<g>
</g>
<g>
</g>
<g>
</g>
<g>
</g>
<g>
</g>
<g>
</g>
<g>
</g>
<g>
</g>
<g>
</g>
<g>
</g>
<g>
</g>
</svg>